<svg width="6" height="6" viewBox="0 0 6 6" fill="none" xmlns="http://www.w3.org/2000/svg">
<path d="M5.04762 1.61905L0.821428 5.85714C0.72619 5.95238 0.613016 6 0.481905 6C0.350794 6 0.237778 5.95238 0.142857 5.85714C0.0476189 5.76191 0 5.64873 0 5.51762C0 5.38651 0.0476189 5.27349 0.142857 5.17857L4.38095 0.952383H0.761905C0.626984 0.952383 0.513809 0.906668 0.422381 0.81524C0.330952 0.723811 0.285397 0.610795 0.285714 0.476192C0.285714 0.341271 0.331428 0.228097 0.422857 0.136668C0.514286 0.0452398 0.627301 -0.000315813 0.761905 1.64771e-06H5.52381C5.65873 1.64771e-06 5.7719 0.045716 5.86333 0.137145C5.95476 0.228573 6.00032 0.341589 6 0.476192V5.2381C6 5.37302 5.95428 5.48619 5.86286 5.57762C5.77143 5.66905 5.65841 5.7146 5.52381 5.71429C5.38889 5.71429 5.27571 5.66857 5.18429 5.57714C5.09286 5.48571 5.0473 5.3727 5.04762 5.2381V1.61905Z" fill="#52F2E2"/>
</svg>
