<?xml version="1.0" encoding="utf-8"?>
<!-- Generator: Adobe Illustrator 24.0.1, SVG Export Plug-In . SVG Version: 6.00 Build 0)  -->
<svg version="1.1" id="Layer_1" xmlns="http://www.w3.org/2000/svg" xmlns:xlink="http://www.w3.org/1999/xlink" x="0px" y="0px"
	 viewBox="0 0 512 512" style="enable-background:new 0 0 512 512;" xml:space="preserve">
<style type="text/css">
	.st0{fill:#F05E56;}
</style>
<g id="Layer_22">
	<path class="st0" d="M336,199.4L278.6,256l57.4,56.6c6.5,6,6.8,16.2,0.7,22.6c-0.2,0.3-0.5,0.5-0.7,0.7c-3,3-7.1,4.7-11.4,4.6
		c-4.2,0-8.2-1.7-11.2-4.6L256,278.6L199.4,336c-3,3-7,4.6-11.2,4.6c-4.3,0-8.3-1.6-11.4-4.6c-6.2-6.2-6.2-16.3,0-22.6l56.6-57.4
		l-56.6-56.6c-5.7-6.7-5-16.8,1.7-22.6c6-5.1,14.8-5.1,20.8,0l56.6,56.6l56.6-56.6c6.2-6.5,16.5-6.6,23-0.4S342.2,192.9,336,199.4z
		 M414.4,414.4c-87.5,87.5-229.3,87.5-316.8,0s-87.5-229.3,0-316.8c87.5-87.5,229.3-87.5,316.8,0
		C501.9,185.1,501.9,326.9,414.4,414.4C414.4,414.4,414.4,414.4,414.4,414.4z M391.8,120.2c-75.1-74.9-196.7-74.6-271.5,0.5
		s-74.6,196.7,0.5,271.5c74.9,74.7,196.1,74.7,271.1,0c75.1-74.9,75.3-196.4,0.5-271.5C392.2,120.5,392,120.3,391.8,120.2z"/>
</g>
</svg>
