<svg xmlns="http://www.w3.org/2000/svg" viewBox="0 0 966.81 250.18"><defs><style>.cls-1{fill:#3fbfb9;}.cls-2{fill:#81d0d4;}.cls-3{fill:#c7c6c5;fill-rule:evenodd;}</style></defs><title>DV5Asset 4</title><g id="Layer_2" data-name="Layer 2"><g id="Layer_1-2" data-name="Layer 1"><path class="cls-1" d="M137.28,189.37,38,231.62l-1.27.51-.84.33L31.92,234a30.77,30.77,0,0,1-11.13,2.23A21,21,0,0,1,9,232.83C3.34,229,.28,222.43.28,214.36V68.21a51.48,51.48,0,0,1,0-10.68,36,36,0,0,1,3.4-11.71l29.2,31.35L56,102l73.78,79.34,4.84,5.19Z"/><path class="cls-2" d="M300.83,201.62h0a1.67,1.67,0,0,1-.08.2l-.56,1.12-1.2,2.41-.1-.1a23.72,23.72,0,0,1-10.39,9.47L216,248.79h-.09a25.21,25.21,0,0,1-8.45,1.39c-11.32,0-19.86-7.05-20.32-7.43l-.19-.18-32.73-35.18L137.43,189.3l-.15.07-2.68-2.89-4.84-5.19L56,102,32.88,77.17,3.68,45.82l.12-.26.65-1.2,1.18-2.18,0,0,.09.09a29.17,29.17,0,0,1,10.12-9.28l.37-.18,12.33-5.48L86.49,1.58C96-1.67,106.53.09,117,6.87a60.63,60.63,0,0,1,11.78,10l38.7,41.57.09,0,2.62,2.81h0l19.48,21,73.78,79.34,24,25.8,3.24,3.41h0Z"/><path class="cls-1" d="M304.09,33.78v153.3a51,51,0,0,1-3.26,14.54l-10.09-10.84h0l-3.24-3.41-24-25.8L189.67,82.22l-19.48-21h0l-2.62-2.81,95.49-40.61,6-2.39,3.34-1.32c8.53-3.34,16.89-2.88,22.92,1.2C301,19.12,304.09,25.71,304.09,33.78Z"/><polygon class="cls-3" points="668.83 104.68 668.83 115.46 772.84 115.46 775.65 118.5 775.65 135.13 772.84 138.18 668.83 138.18 668.83 148.96 772.84 148.96 775.65 151.77 775.65 168.4 772.84 171.44 649.15 171.44 646.34 168.4 646.34 85.24 649.15 82.19 772.84 82.19 775.65 85.24 775.65 101.87 772.84 104.68 668.83 104.68"/><polygon class="cls-3" points="955.57 171.44 947.13 171.44 944.32 168.4 944.32 85.24 947.13 82.19 955.57 82.19 963.77 82.19 966.81 85.24 966.81 168.4 963.77 171.44 955.57 171.44"/><polygon class="cls-3" points="511.87 115.46 511.87 110.07 511.87 104.68 595.97 104.68 600.42 104.68 600.42 104.68 607.22 104.68 615.65 104.68 618.7 101.63 618.7 101.4 618.7 97.18 618.7 96.48 618.7 95.08 618.7 93.44 618.7 89.69 618.7 85.24 615.65 82.19 607.22 82.19 492.19 82.19 489.15 85.24 489.15 93.44 489.15 101.87 489.15 151.77 489.15 160.2 489.15 168.4 492.19 171.44 585.2 171.44 607.22 171.44 615.65 171.44 618.7 168.4 618.7 160.2 618.7 157.16 618.7 152.24 618.7 149.42 618.7 145.68 618.7 138.18 618.7 118.5 615.65 115.46 610.97 115.46 607.22 115.46 599.02 115.46 560.6 115.46 557.79 118.5 557.79 135.13 560.6 138.18 595.97 138.18 595.97 148.96 585.2 148.96 511.87 148.96 511.87 143.57 511.87 138.18 511.87 115.46"/><polygon class="cls-3" points="815.01 104.68 871.47 104.68 871.47 104.68 899.35 104.68 899.35 115.46 899.35 132.32 899.35 132.32 899.35 156.22 899.35 168.4 902.16 171.44 907.08 171.44 910.59 171.44 918.79 171.44 918.79 171.44 921.84 168.4 921.84 168.4 921.84 160.2 921.84 132.32 921.84 129.75 921.84 126.94 921.84 126.7 921.84 123.89 921.84 118.5 921.84 115.69 921.84 107.26 919.26 104.68 913.64 104.68 907.78 104.68 903.8 104.68 903.8 85.24 900.75 82.19 896.3 82.19 871.47 82.19 795.33 82.19 792.52 85.24 792.52 93.44 792.52 101.87 792.52 132.32 792.52 156.22 792.52 168.4 795.33 171.44 800.25 171.44 803.77 171.44 811.97 171.44 811.97 171.44 815.01 168.4 815.01 168.4 815.01 160.2 815.01 132.32 815.01 104.68"/><polygon class="cls-3" points="356.32 104.68 412.78 104.68 412.78 104.68 440.66 104.68 440.66 115.46 440.66 132.32 440.66 132.32 440.66 156.22 440.66 168.4 443.7 171.44 448.39 171.44 451.9 171.44 460.33 171.44 460.33 171.44 463.14 168.4 463.14 168.4 463.14 160.2 463.14 132.32 463.14 129.75 463.14 126.94 463.14 126.7 463.14 123.89 463.14 118.5 463.14 115.69 463.14 107.26 460.57 104.68 454.95 104.68 449.09 104.68 445.11 104.68 445.11 85.24 442.06 82.19 437.61 82.19 412.78 82.19 336.64 82.19 333.83 85.24 333.83 93.44 333.83 101.87 333.83 132.32 333.83 156.22 333.83 168.4 336.64 171.44 341.56 171.44 345.08 171.44 353.28 171.44 353.28 171.44 356.32 168.4 356.32 168.4 356.32 160.2 356.32 132.32 356.32 104.68"/></g></g></svg>